<?xml version="1.0" encoding="utf-8"?>
<!-- Generator: Adobe Illustrator 22.0.1, SVG Export Plug-In . SVG Version: 6.00 Build 0)  -->
<svg version="1.1" id="Calque_1" xmlns="http://www.w3.org/2000/svg" xmlns:xlink="http://www.w3.org/1999/xlink" x="0px" y="0px"
	 viewBox="0 0 260 205" style="enable-background:new 0 0 260 205;" xml:space="preserve">
<style type="text/css">
	.st0{fill:#1D71B8;}
	.st1{fill:#454444;}
	.st2{fill:#B2B2B2;}
	.st3{fill:#3AAA35;}
	.st4{fill:#FDC533;}
</style>
<g>
	<polygon class="st0" points="125.1,133.3 120.8,133.3 116.5,133.3 112.2,133.3 112.2,137.6 112.2,141.9 116.5,141.9 120.8,141.9 
		125.1,141.9 129.4,141.9 133.7,141.9 138.1,141.9 142.4,141.9 142.4,137.6 142.4,133.3 142.4,129 142.4,124.7 142.4,120.4 
		142.4,116.1 142.4,111.8 138.1,111.8 133.7,111.8 133.7,116.1 133.7,120.4 133.7,124.7 133.7,129 133.7,133.3 129.4,133.3 	"/>
	<polygon class="st1" points="103.5,8.6 107.9,8.6 112.2,8.6 116.5,8.6 120.8,8.6 125.1,8.6 129.4,8.6 133.7,8.6 133.7,12.9 
		133.7,17.2 133.7,21.5 133.7,25.8 133.7,30.1 133.7,34.4 133.7,38.7 133.7,43 133.7,47.3 138.1,47.3 142.4,47.3 142.4,43 
		142.4,38.7 142.4,34.4 142.4,30.1 142.4,25.8 142.4,21.5 142.4,17.2 142.4,12.9 142.4,8.6 142.4,4.3 142.4,0 138.1,0 133.7,0 
		129.4,0 125.1,0 120.8,0 116.5,0 112.2,0 107.9,0 103.5,0 99.2,0 94.9,0 94.9,4.3 94.9,8.6 99.2,8.6 	"/>
	<polygon class="st1" points="38.8,133.3 34.5,133.3 30.2,133.3 25.9,133.3 21.6,133.3 17.3,133.3 12.9,133.3 8.6,133.3 8.6,129 
		8.6,124.7 8.6,120.4 8.6,116.1 8.6,111.8 8.6,107.5 8.6,103.2 8.6,98.9 8.6,94.6 4.3,94.6 0,94.6 0,98.9 0,103.2 0,107.5 0,111.8 
		0,116.1 0,120.4 0,124.7 0,129 0,133.3 0,137.6 0,141.9 4.3,141.9 8.6,141.9 12.9,141.9 17.3,141.9 21.6,141.9 25.9,141.9 
		30.2,141.9 34.5,141.9 38.8,141.9 43.1,141.9 47.5,141.9 47.5,137.6 47.5,133.3 43.1,133.3 	"/>
	<polygon class="st1" points="8.6,47.3 8.6,43 8.6,38.7 8.6,34.4 8.6,30.1 8.6,25.8 8.6,21.5 8.6,17.2 8.6,12.9 8.6,8.6 12.9,8.6 
		17.3,8.6 21.6,8.6 25.9,8.6 30.2,8.6 34.5,8.6 38.8,8.6 43.1,8.6 47.5,8.6 47.5,4.3 47.5,0 43.1,0 38.8,0 34.5,0 30.2,0 25.9,0 
		21.6,0 17.3,0 12.9,0 8.6,0 4.3,0 0,0 0,4.3 0,8.6 0,12.9 0,17.2 0,21.5 0,25.8 0,30.1 0,34.4 0,38.7 0,43 0,47.3 4.3,47.3 	"/>
	<polygon class="st1" points="164.4,116.9 165.1,111.8 146.7,111.8 146.7,141.9 165.1,141.9 165.1,136.8 153.8,136.8 153.8,129.1 
		163,129.1 163,124.1 153.8,124.1 153.8,116.9 	"/>
	<path class="st1" d="M177.1,130.3l3.2-13.3l3.2,13.3H177.1z M176.1,111.8l-9.1,30.1h7.4l1.5-6.5h8.8l1.6,6.5h7.5l-9.1-30.1H176.1z"
		/>
	<polygon class="st2" points="133.7,81.5 133.7,98.9 142.8,98.9 143.1,97 135.9,97 135.9,81.5 	"/>
	<polygon class="st2" points="147.1,92.2 147.1,98.9 149.3,98.9 149.3,92.2 154.9,81.5 152.6,81.5 148.3,90.3 143.9,81.5 
		141.5,81.5 	"/>
	<polygon class="st2" points="178.7,77.8 177.7,76 172.7,78.6 173.3,79.8 	"/>
	<polygon class="st2" points="180.4,97.1 173.2,97.1 173.2,90.9 179.1,90.9 179.1,89.1 173.2,89.1 173.2,83.3 180,83.3 180.2,81.5 
		171,81.5 171,98.9 180.4,98.9 	"/>
	<polygon class="st2" points="186.5,90.9 192.5,90.9 192.5,89.1 186.5,89.1 186.5,83.3 193.4,83.3 193.6,81.5 184.4,81.5 
		184.4,98.9 193.8,98.9 193.8,97.1 186.5,97.1 	"/>
	<path class="st1" d="M149.7,156.2l3.5,14.6h-7L149.7,156.2z M144.9,176.5h9.6l1.7,7.1h8.3l-10-33.1h-9.5l-10,33.1h8.1L144.9,176.5z
		"/>
	<polygon class="st1" points="207.3,150.5 199.5,150.5 199.5,183.6 219.4,183.6 220.2,177.4 207.3,177.4 	"/>
	<rect x="237.2" y="150.5" class="st1" width="7.8" height="33.1"/>
	<rect x="252.2" y="150.5" class="st1" width="7.8" height="33.1"/>
	<polygon class="st2" points="162.2,198 165.9,198 165.9,196.9 162.2,196.9 162.2,193.3 166.4,193.3 166.6,192.2 160.8,192.2 
		160.8,202.9 166.7,202.9 166.7,201.8 162.2,201.8 	"/>
	<path class="st2" d="M182,199.1l1.8-5.8l1.8,5.8H182z M182.9,192.2l-3.5,10.8h1.4l0.8-2.8h4.2l0.8,2.8h1.4l-3.5-10.8H182.9z"/>
	<rect x="189.5" y="192.2" class="st2" width="1.3" height="10.8"/>
	<polygon class="st2" points="202.8,193.3 205.9,193.3 205.9,202.9 207.3,202.9 207.3,193.3 210.3,193.3 210.5,192.2 202.8,192.2 	
		"/>
	<polygon class="st2" points="221.6,198 225.3,198 225.3,196.9 221.6,196.9 221.6,193.3 225.9,193.3 226,192.2 220.3,192.2 
		220.3,202.9 226.1,202.9 226.1,201.8 221.6,201.8 	"/>
	<path class="st2" d="M229.4,199.1l1.8-5.8l1.8,5.8H229.4z M230.3,192.2l-3.5,10.8h1.4l0.8-2.8h4.2l0.8,2.8h1.4l-3.5-10.8H230.3z"/>
	<polygon class="st2" points="116.8,55 120.6,51.2 124.5,47.3 120.6,43.4 116.8,39.6 112.9,35.7 109,31.8 105.1,27.9 101.2,24.1 
		97.4,27.9 93.5,31.8 97.4,35.7 101.2,39.6 105.1,43.4 109,47.3 105.1,51.2 101.2,55 97.4,58.9 93.5,62.8 97.4,66.6 101.2,70.5 
		105.1,66.6 109,62.8 112.9,58.9 	"/>
	<polygon class="st0" points="70.2,70.5 74.1,74.4 77.9,78.3 81.8,82.1 85.7,86 89.6,82.1 93.5,78.3 89.6,74.4 85.7,70.5 81.8,66.6 
		77.9,62.8 74.1,58.9 70.2,55 66.3,58.9 62.4,62.8 58.5,66.6 54.6,70.5 50.8,74.4 46.9,78.3 50.8,82.1 54.6,86 58.5,82.1 62.4,78.3 
		66.3,74.4 	"/>
	<polygon class="st3" points="39.1,24.1 15.8,47.3 23.6,55 39.1,39.6 54.6,55 70.2,39.6 85.7,55 93.5,47.3 70.2,24.1 54.6,39.6 	"/>
	<path class="st4" d="M96.7,93.7c0,6-4.9,10.9-11,10.9c-6.1,0-11-4.9-11-10.9h-5.5h-5.5c0,12.1,9.8,21.9,22,21.9
		c6.1,0,11.5-2.4,15.5-6.4c4.3-4.3,6.5-9.1,6.5-15.5h-5.5H96.7z"/>
	<path class="st2" d="M163,99.2c2.3,0,3.9-0.9,4.9-1.9l-1.1-1.4c-1,0.8-2.1,1.4-3.7,1.4c-2.8,0-4.9-2-4.9-7.1c0-5.3,2.2-7.2,5-7.2
		c1.3,0,2.3,0.4,3.4,1.3l1.2-1.4c-1.4-1.1-2.6-1.7-4.7-1.7c-3.9,0-7.2,3.1-7.2,9C155.8,96,158.8,99.2,163,99.2"/>
	<path class="st1" d="M203.2,130.9c0-5.6-0.6-9.6-0.9-12.3l8.7,23.3h9.1v-30.1h-6.4V124c0,4.8,0.6,8.8,1,11.2l-8.9-23.4h-8.8v30.1
		h6.3V130.9z"/>
	<path class="st1" d="M120,156.1h2.8c3.9,0,5.8,1.7,5.8,5.2c0,4.1-2.1,5.6-5.7,5.6H120V156.1z M112.2,183.6h7.8v-11h3.6
		c7.6,0,13.1-3.6,13.1-11.3c0-7.3-5.2-10.8-13.8-10.8h-10.7V183.6z"/>
	<path class="st1" d="M185,172.3c0,4.2-1.5,6.3-5.1,6.3c-3.5,0-5-2.1-5-6.3v-21.8H167v22.1c0,7,4.2,11.8,12.9,11.8
		c8.6,0,12.9-5.1,12.9-11.8v-22.1H185V172.3z"/>
	<path class="st2" d="M243.1,198.2c0,0.6,0,1.2,0.1,1.8c0,0.7,0.1,1.1,0.1,1.4l-4.6-9.3h-1.8v10.8h1.3v-5.2c0-1.3-0.1-2.7-0.2-4.1
		l4.5,9.3h1.8v-10.8h-1.3V198.2z"/>
	<path class="st2" d="M216,201.4c0,0.5,0,0.9-0.1,1.2c-0.1,0.3-0.3,0.6-0.5,0.8c-0.2,0.2-0.6,0.4-1.1,0.6l0.4,1
		c0.6-0.2,1.1-0.5,1.5-0.7c0.4-0.3,0.7-0.6,0.9-1.1c0.2-0.5,0.3-1,0.3-1.7v-9.3H216V201.4z"/>
	<path class="st2" d="M200,198.2c0,0.6,0,1.2,0.1,1.8c0,0.7,0.1,1.1,0.1,1.4l-4.6-9.3h-1.8v10.8h1.3v-5.2c0-1.3-0.1-2.7-0.2-4.1
		l4.6,9.3h1.8v-10.8H200V198.2z"/>
	<path class="st2" d="M177.5,197.4c-0.4-0.2-1-0.5-1.7-0.7c-0.6-0.2-1.1-0.4-1.5-0.6c-0.3-0.2-0.6-0.4-0.7-0.6
		c-0.1-0.2-0.2-0.5-0.2-0.8c0-0.5,0.2-0.9,0.6-1.2s0.9-0.4,1.5-0.4c0.5,0,0.9,0.1,1.3,0.2c0.4,0.2,0.8,0.4,1.2,0.7l0.7-0.8
		c-0.5-0.4-0.9-0.7-1.5-0.9c-0.5-0.2-1.1-0.3-1.8-0.3c-0.6,0-1.2,0.1-1.7,0.4c-0.5,0.2-0.9,0.6-1.2,1c-0.3,0.4-0.4,0.9-0.4,1.4
		c0,0.8,0.3,1.4,0.8,1.9c0.5,0.5,1.3,0.9,2.4,1.2c0.6,0.2,1.1,0.4,1.5,0.6c0.3,0.2,0.6,0.4,0.7,0.7c0.1,0.2,0.2,0.6,0.2,0.9
		c0,0.6-0.2,1.1-0.7,1.5c-0.4,0.3-1,0.5-1.7,0.5c-0.6,0-1.1-0.1-1.5-0.3c-0.5-0.2-0.9-0.5-1.3-0.8l-0.8,0.9c1,0.9,2.2,1.4,3.6,1.4
		c0.8,0,1.4-0.1,2-0.4c0.6-0.3,1-0.6,1.3-1.1c0.3-0.5,0.5-1,0.5-1.7c0-0.6-0.1-1.2-0.4-1.6C178.3,197.9,177.9,197.6,177.5,197.4"/>
	<path class="st2" d="M156.8,197.3c-0.5,0.4-1.1,0.5-2,0.5h-1.4v-4.6h1.4c0.9,0,1.5,0.2,2,0.5c0.5,0.4,0.7,0.9,0.7,1.7
		C157.5,196.4,157.3,197,156.8,197.3 M157.9,193c-0.7-0.5-1.7-0.8-3.1-0.8H152v10.8h1.3v-4h1.4c1.3,0,2.3-0.3,3-0.9
		c0.8-0.6,1.1-1.4,1.1-2.6C159,194.4,158.6,193.5,157.9,193"/>
	<path class="st2" d="M147.9,199.4c0,0.9-0.2,1.5-0.6,1.9c-0.4,0.4-1,0.6-1.8,0.6c-1.6,0-2.4-0.9-2.4-2.6v-7.2h-1.3v7.3
		c0,1.1,0.3,2,1,2.6c0.6,0.7,1.6,1,2.7,1c1.2,0,2.1-0.3,2.8-1c0.7-0.7,1-1.5,1-2.6v-7.3h-1.4V199.4z"/>
	<path class="st2" d="M137.5,200.9c-0.5,0.7-1.3,1.1-2.3,1.1c-1,0-1.7-0.4-2.3-1.1c-0.5-0.7-0.8-1.8-0.8-3.3c0-1.5,0.3-2.6,0.8-3.4
		c0.5-0.7,1.3-1.1,2.3-1.1c1,0,1.7,0.4,2.3,1.1c0.5,0.7,0.8,1.8,0.8,3.4C138.3,199.1,138.1,200.2,137.5,200.9 M137.6,192.6
		c-0.7-0.4-1.5-0.6-2.4-0.6c-0.9,0-1.7,0.2-2.4,0.7c-0.7,0.4-1.2,1.1-1.6,1.9c-0.4,0.8-0.6,1.8-0.6,3c0,1.2,0.2,2.2,0.6,3
		c0.4,0.8,0.9,1.5,1.6,1.9c0.7,0.4,1.5,0.6,2.4,0.6s1.7-0.2,2.4-0.6c0.7-0.4,1.2-1.1,1.6-1.9c0.4-0.8,0.6-1.8,0.6-3
		c0-1.2-0.2-2.2-0.6-3C138.8,193.7,138.3,193.1,137.6,192.6"/>
	<path class="st2" d="M125.4,197.2h-1.6v-4h1.4c0.9,0,1.6,0.2,2,0.5c0.4,0.3,0.6,0.8,0.6,1.5c0,0.7-0.2,1.2-0.6,1.6
		C126.8,197.1,126.2,197.2,125.4,197.2 M128.7,197c0.4-0.5,0.6-1.1,0.6-1.8c0-1-0.3-1.7-1-2.3c-0.7-0.5-1.7-0.8-3-0.8h-2.8v10.8h1.3
		v-4.6h1.8l2.6,4.6h1.6l-2.9-4.9C127.7,197.8,128.3,197.5,128.7,197"/>
	<path class="st2" d="M116.8,198.1h2v3.4c-0.6,0.3-1.3,0.5-2.1,0.5c-1,0-1.8-0.4-2.3-1.1c-0.5-0.7-0.8-1.8-0.8-3.4
		c0-1,0.1-1.9,0.4-2.5c0.3-0.7,0.7-1.1,1.2-1.4c0.5-0.3,1-0.5,1.6-0.5c0.5,0,0.9,0.1,1.3,0.2c0.4,0.1,0.7,0.4,1.1,0.7l0.8-0.8
		c-0.5-0.4-1-0.7-1.5-0.9c-0.5-0.2-1.1-0.3-1.8-0.3c-0.8,0-1.6,0.2-2.3,0.6c-0.7,0.4-1.3,1.1-1.7,1.9c-0.4,0.8-0.6,1.8-0.6,3
		c0,1.8,0.4,3.2,1.2,4.2c0.8,0.9,1.9,1.4,3.2,1.4c1.3,0,2.5-0.3,3.5-0.9V197h-3.5L116.8,198.1z"/>
</g>
</svg>
